<mxfile host="app.diagrams.net" modified="2024-07-22T23:40:01.201Z" agent="Mozilla/5.0 (Macintosh; Intel Mac OS X 10_15_7) AppleWebKit/537.36 (KHTML, like Gecko) Chrome/126.0.0.0 Safari/537.36" etag="Q4o6MiOXazXQQ5P3U-dg" version="24.7.3" type="github">
  <diagram name="Page-1" id="EP4QQ97qRVcQPSVcsZwG">
    <mxGraphModel dx="3116" dy="862" grid="1" gridSize="10" guides="1" tooltips="1" connect="1" arrows="1" fold="1" page="1" pageScale="1" pageWidth="850" pageHeight="1100" math="0" shadow="0">
      <root>
        <mxCell id="0" />
        <mxCell id="1" parent="0" />
        <mxCell id="u9Qty3YH7hLvffLcsdpy-11" value="" style="rounded=0;whiteSpace=wrap;html=1;dashed=1;strokeColor=#FF0000;" vertex="1" parent="1">
          <mxGeometry x="-22.5" y="170" width="770" height="250" as="geometry" />
        </mxCell>
        <mxCell id="QRoZpUSQXtjQfJ5ine1u-7" value="" style="verticalLabelPosition=bottom;html=1;verticalAlign=top;align=center;strokeColor=none;fillColor=#00BEF2;shape=mxgraph.azure.cloud;" parent="1" vertex="1">
          <mxGeometry x="190" y="460" width="320" height="202.5" as="geometry" />
        </mxCell>
        <mxCell id="QRoZpUSQXtjQfJ5ine1u-1" value="" style="shape=cylinder3;whiteSpace=wrap;html=1;boundedLbl=1;backgroundOutline=1;size=15;fillColor=#d5e8d4;strokeColor=#82b366;" parent="1" vertex="1">
          <mxGeometry x="-270" y="300" width="60" height="80" as="geometry" />
        </mxCell>
        <mxCell id="QRoZpUSQXtjQfJ5ine1u-2" value="" style="shape=cylinder3;whiteSpace=wrap;html=1;boundedLbl=1;backgroundOutline=1;size=15;fillColor=#d5e8d4;strokeColor=#82b366;" parent="1" vertex="1">
          <mxGeometry x="910" y="300" width="60" height="80" as="geometry" />
        </mxCell>
        <mxCell id="QRoZpUSQXtjQfJ5ine1u-6" value="Topics" style="rounded=1;whiteSpace=wrap;html=1;fillColor=#eeeeee;strokeColor=#36393d;" parent="1" vertex="1">
          <mxGeometry x="90" y="560" width="560" height="40" as="geometry" />
        </mxCell>
        <mxCell id="QRoZpUSQXtjQfJ5ine1u-11" value="" style="shape=singleArrow;direction=south;whiteSpace=wrap;html=1;fillColor=#cdeb8b;strokeColor=#36393d;" parent="1" vertex="1">
          <mxGeometry x="290" y="440" width="60" height="100" as="geometry" />
        </mxCell>
        <mxCell id="QRoZpUSQXtjQfJ5ine1u-12" value="" style="shape=singleArrow;direction=north;whiteSpace=wrap;html=1;fillColor=#cdeb8b;strokeColor=#36393d;" parent="1" vertex="1">
          <mxGeometry x="370" y="440" width="60" height="100" as="geometry" />
        </mxCell>
        <mxCell id="QRoZpUSQXtjQfJ5ine1u-13" value="" style="shape=singleArrow;whiteSpace=wrap;html=1;fillColor=#cdeb8b;strokeColor=#36393d;" parent="1" vertex="1">
          <mxGeometry x="-180" y="310" width="100" height="60" as="geometry" />
        </mxCell>
        <mxCell id="QRoZpUSQXtjQfJ5ine1u-14" value="" style="shape=singleArrow;whiteSpace=wrap;html=1;fillColor=#cdeb8b;strokeColor=#36393d;" parent="1" vertex="1">
          <mxGeometry x="780" y="312" width="100" height="60" as="geometry" />
        </mxCell>
        <mxCell id="QRoZpUSQXtjQfJ5ine1u-16" value="" style="shape=image;html=1;verticalAlign=top;verticalLabelPosition=bottom;labelBackgroundColor=#ffffff;imageAspect=0;aspect=fixed;image=https://cdn1.iconfinder.com/data/icons/flat-christmas-icons-1/75/_snowflake-128.png" parent="1" vertex="1">
          <mxGeometry x="950" y="297.5" width="38" height="38" as="geometry" />
        </mxCell>
        <mxCell id="QRoZpUSQXtjQfJ5ine1u-17" value="" style="verticalLabelPosition=bottom;html=1;verticalAlign=top;align=center;strokeColor=none;fillColor=#00BEF2;shape=mxgraph.azure.mysql_database;" parent="1" vertex="1">
          <mxGeometry x="-220" y="300" width="27.5" height="33" as="geometry" />
        </mxCell>
        <mxCell id="QRoZpUSQXtjQfJ5ine1u-18" value="External Data Platform" style="text;html=1;align=center;verticalAlign=middle;resizable=0;points=[];autosize=1;strokeColor=none;fillColor=none;" parent="1" vertex="1">
          <mxGeometry x="-310" y="420" width="140" height="30" as="geometry" />
        </mxCell>
        <mxCell id="QRoZpUSQXtjQfJ5ine1u-19" value="External Data Platform" style="text;html=1;align=center;verticalAlign=middle;resizable=0;points=[];autosize=1;strokeColor=none;fillColor=none;" parent="1" vertex="1">
          <mxGeometry x="870" y="420" width="140" height="30" as="geometry" />
        </mxCell>
        <mxCell id="QRoZpUSQXtjQfJ5ine1u-20" value="Kafka Cluster" style="text;html=1;align=center;verticalAlign=middle;resizable=0;points=[];autosize=1;strokeColor=none;fillColor=none;" parent="1" vertex="1">
          <mxGeometry x="310" y="680" width="100" height="30" as="geometry" />
        </mxCell>
        <mxCell id="u9Qty3YH7hLvffLcsdpy-2" value="" style="group;fillColor=#f5f5f5;fontColor=#333333;strokeColor=#666666;container=0;" vertex="1" connectable="0" parent="1">
          <mxGeometry y="200" width="215" height="200" as="geometry" />
        </mxCell>
        <mxCell id="u9Qty3YH7hLvffLcsdpy-3" value="" style="group;fillColor=#CCCCFF;fontColor=#333333;strokeColor=#666666;container=0;" vertex="1" connectable="0" parent="1">
          <mxGeometry x="510" y="200" width="215" height="200" as="geometry" />
        </mxCell>
        <mxCell id="u9Qty3YH7hLvffLcsdpy-7" value="" style="group;fillColor=#fff2cc;strokeColor=#9933FF;shadow=0;rounded=1;fillStyle=solid;container=0;" vertex="1" connectable="0" parent="1">
          <mxGeometry x="255" y="200" width="215" height="200" as="geometry" />
        </mxCell>
        <mxCell id="u9Qty3YH7hLvffLcsdpy-12" value="" style="shape=singleArrow;direction=south;whiteSpace=wrap;html=1;fillColor=#cdeb8b;strokeColor=#36393d;" vertex="1" parent="1">
          <mxGeometry x="70" y="440" width="60" height="100" as="geometry" />
        </mxCell>
        <mxCell id="u9Qty3YH7hLvffLcsdpy-13" value="" style="shape=singleArrow;direction=north;whiteSpace=wrap;html=1;fillColor=#cdeb8b;strokeColor=#36393d;" vertex="1" parent="1">
          <mxGeometry x="587.5" y="440" width="60" height="100" as="geometry" />
        </mxCell>
        <mxCell id="u9Qty3YH7hLvffLcsdpy-1" value="" style="rounded=0;whiteSpace=wrap;html=1;dashed=1;strokeColor=#6c8ebf;fillColor=#dae8fc;" vertex="1" parent="1">
          <mxGeometry y="200" width="215" height="200" as="geometry" />
        </mxCell>
        <mxCell id="QRoZpUSQXtjQfJ5ine1u-3" value="Kafka Connect Cluster" style="rounded=1;whiteSpace=wrap;html=1;fillColor=#f5f5f5;fontColor=#333333;strokeColor=#666666;" parent="1" vertex="1">
          <mxGeometry x="22.5" y="230" width="170" height="60" as="geometry" />
        </mxCell>
        <mxCell id="QRoZpUSQXtjQfJ5ine1u-4" value="Source Connector" style="rounded=1;whiteSpace=wrap;html=1;fillColor=#fff2cc;strokeColor=#d6b656;" parent="1" vertex="1">
          <mxGeometry x="22.5" y="310" width="170" height="60" as="geometry" />
        </mxCell>
        <mxCell id="u9Qty3YH7hLvffLcsdpy-8" value="" style="rounded=0;whiteSpace=wrap;html=1;dashed=1;strokeColor=#6c8ebf;fillColor=#dae8fc;" vertex="1" parent="1">
          <mxGeometry x="255" y="200" width="215" height="200" as="geometry" />
        </mxCell>
        <mxCell id="u9Qty3YH7hLvffLcsdpy-9" value="Kafka Connect Cluster" style="rounded=1;whiteSpace=wrap;html=1;fillColor=#f5f5f5;fontColor=#333333;strokeColor=#666666;" vertex="1" parent="1">
          <mxGeometry x="277.5" y="230" width="170" height="60" as="geometry" />
        </mxCell>
        <mxCell id="u9Qty3YH7hLvffLcsdpy-10" value="Source + Sink Connector" style="rounded=1;whiteSpace=wrap;html=1;fillColor=#fff2cc;strokeColor=#d6b656;" vertex="1" parent="1">
          <mxGeometry x="277.5" y="310" width="170" height="60" as="geometry" />
        </mxCell>
        <mxCell id="u9Qty3YH7hLvffLcsdpy-4" value="" style="rounded=0;whiteSpace=wrap;html=1;dashed=1;strokeColor=#6c8ebf;fillColor=#dae8fc;" vertex="1" parent="1">
          <mxGeometry x="510" y="200" width="215" height="200" as="geometry" />
        </mxCell>
        <mxCell id="u9Qty3YH7hLvffLcsdpy-5" value="Kafka Connect Cluster" style="rounded=1;whiteSpace=wrap;html=1;fillColor=#f5f5f5;fontColor=#333333;strokeColor=#666666;" vertex="1" parent="1">
          <mxGeometry x="532.5" y="230" width="170" height="60" as="geometry" />
        </mxCell>
        <mxCell id="u9Qty3YH7hLvffLcsdpy-6" value="Sink Connector" style="rounded=1;whiteSpace=wrap;html=1;fillColor=#fff2cc;strokeColor=#d6b656;" vertex="1" parent="1">
          <mxGeometry x="532.5" y="310" width="170" height="60" as="geometry" />
        </mxCell>
        <mxCell id="u9Qty3YH7hLvffLcsdpy-14" value="or" style="text;html=1;align=center;verticalAlign=middle;resizable=0;points=[];autosize=1;strokeColor=none;fillColor=none;" vertex="1" parent="1">
          <mxGeometry x="219" y="287" width="30" height="30" as="geometry" />
        </mxCell>
        <mxCell id="u9Qty3YH7hLvffLcsdpy-15" value="or" style="text;html=1;align=center;verticalAlign=middle;resizable=0;points=[];autosize=1;strokeColor=none;fillColor=none;" vertex="1" parent="1">
          <mxGeometry x="475" y="285" width="30" height="30" as="geometry" />
        </mxCell>
      </root>
    </mxGraphModel>
  </diagram>
</mxfile>
